<svg width="23" height="14" viewBox="0 0 23 14" fill="none" xmlns="http://www.w3.org/2000/svg">
<path d="M0.649902 0.995C0.649902 0.445 1.13679 0 1.73611 0H10.4804C10.7684 7.86455e-09 11.0447 0.10483 11.2484 0.291429C11.4521 0.478027 11.5666 0.731109 11.5666 0.995C11.5666 1.25889 11.4521 1.51197 11.2484 1.69857C11.0447 1.88517 10.7684 1.99 10.4804 1.99H1.73611C1.44803 1.99 1.17175 1.88517 0.968045 1.69857C0.764342 1.51197 0.649902 1.25889 0.649902 0.995ZM0.649902 7C0.649902 6.45 1.13679 6.005 1.73611 6.005H21.397C21.6851 6.005 21.9614 6.10983 22.1651 6.29643C22.3688 6.48303 22.4832 6.73611 22.4832 7C22.4832 7.26389 22.3688 7.51697 22.1651 7.70357C21.9614 7.89017 21.6851 7.995 21.397 7.995H1.73611C1.44803 7.995 1.17175 7.89017 0.968045 7.70357C0.764342 7.51697 0.649902 7.26389 0.649902 7ZM1.73611 12.01C1.44803 12.01 1.17175 12.1148 0.968045 12.3014C0.764342 12.488 0.649902 12.7411 0.649902 13.005C0.649902 13.2689 0.764342 13.522 0.968045 13.7086C1.17175 13.8952 1.44803 14 1.73611 14H14.847C15.1351 14 15.4114 13.8952 15.6151 13.7086C15.8188 13.522 15.9332 13.2689 15.9332 13.005C15.9332 12.7411 15.8188 12.488 15.6151 12.3014C15.4114 12.1148 15.1351 12.01 14.847 12.01H1.73611Z" fill="#444444"/>
</svg>
